<svg width="650" height="134" viewBox="0 0 650 134" fill="none" xmlns="http://www.w3.org/2000/svg">
<path d="M34.5 68.7C34.2 68.7 34 68.5 34 68.2V56.5C34 56.2 34.2 56 34.5 56C34.8 56 35 56.2 35 56.5V68.2C35 68.5 34.8 68.7 34.5 68.7Z" fill="#86A2ED"/>
<path d="M123.3 68.7C123 68.7 122.8 68.5 122.8 68.2V56.5C122.8 56.2 123 56 123.3 56C123.6 56 123.8 56.2 123.8 56.5V68.2C123.8 68.5 123.6 68.7 123.3 68.7Z" fill="#86A2ED"/>
<path d="M209.1 68.7C208.8 68.7 208.6 68.5 208.6 68.2V56.5C208.6 56.2 208.8 56 209.1 56C209.4 56 209.6 56.2 209.6 56.5V68.2C209.6 68.5 209.4 68.7 209.1 68.7Z" fill="#86A2ED"/>
<path d="M289.5 68.7C289.2 68.7 289 68.5 289 68.2V56.5C289 56.2 289.2 56 289.5 56C289.8 56 290 56.2 290 56.5V68.2C290 68.5 289.8 68.7 289.5 68.7Z" fill="#86A2ED"/>
<path d="M330.7 56.7C330.4 56.7 330.2 56.5 330.2 56.2V44.5C330.2 44.2 330.4 44 330.7 44C331 44 331.2 44.2 331.2 44.5V56.2C331.2 56.5 331 56.7 330.7 56.7Z" fill="#86A2ED"/>
<path d="M373.1 68.7C372.8 68.7 372.6 68.5 372.6 68.2V56.5C372.6 56.2 372.8 56 373.1 56C373.4 56 373.6 56.2 373.6 56.5V68.2C373.6 68.5 373.4 68.7 373.1 68.7Z" fill="#86A2ED"/>
<path d="M455.3 68.7C455 68.7 454.8 68.5 454.8 68.2V56.5C454.8 56.2 455 56 455.3 56C455.6 56 455.8 56.2 455.8 56.5V68.2C455.8 68.5 455.6 68.7 455.3 68.7Z" fill="#86A2ED"/>
<path d="M537.3 68.7C537 68.7 536.8 68.5 536.8 68.2V56.5C536.8 56.2 537 56 537.3 56C537.6 56 537.8 56.2 537.8 56.5V68.2C537.8 68.5 537.6 68.7 537.3 68.7Z" fill="#86A2ED"/>
<path d="M626.2 68.7C625.9 68.7 625.7 68.5 625.7 68.2V56.5C625.7 56.2 625.9 56 626.2 56C626.5 56 626.7 56.2 626.7 56.5V68.2C626.8 68.5 626.5 68.7 626.2 68.7C626.3 68.7 626.2 68.7 626.2 68.7Z" fill="#86A2ED"/>
<path d="M626.2 57H34.5C34.2 57 34 56.8 34 56.5C34 56.2 34.2 56 34.5 56H626.3C626.6 56 626.8 56.2 626.8 56.5C626.8 56.8 626.5 57 626.2 57Z" fill="#86A2ED"/>
<path d="M189.7 103.6C189.3 104 188.9 104.3 188.4 104.4V111.2C188.4 112.2 189.2 113 190.2 113H194.3C195.3 113 196.1 112.2 196.1 111.2V97.2C196.1 97.1 196.1 97.1 196.1 97L189.7 103.6Z" fill="#86A2ED"/>
<path d="M232.5 76.9H232.4L224 77.3C223.5 77.3 223.2 77.3 222.9 77.9C222.7 78.5 222.9 78.7 223.3 79C224.1 79.8 225 80.7 225.8 81.5L224.8 82.5L217.1 90.2L216.4 90.9L208.1 99.2L197.7 88.8C197.3 88.4 196.9 88.2 196.4 88.3C195.9 88.3 195.4 88.5 195.1 88.8L185 98.8C184.3 99.5 184.3 100.7 185 101.4L185.5 101.9C185.9 102.3 186.3 102.5 186.8 102.4C187.3 102.4 187.8 102.2 188.1 101.9L196.4 93.6L206.8 104C207.2 104.4 207.6 104.6 208.1 104.5C208.6 104.5 209.1 104.3 209.4 104L209.9 103.5L217.8 95.6L219.5 93.9L220.2 93.2L228.8 84.6L231.3 87.1C231.5 87.3 231.8 87.6 232.1 87.6C232.2 87.6 232.3 87.6 232.6 87.5C233.1 87.3 233.3 86.8 233.2 86.3C233.3 83.5 233.4 80.9 233.6 78.2C233.7 77.3 233.3 76.9 232.5 76.9Z" fill="#CB333B"/>
<path d="M204.8 105.3L199.5 100C199.4 100.2 199.3 100.6 199.3 101V111.4C199.3 112.4 200.1 113.2 201.1 113.2H205.2C206.2 113.2 207 112.4 207 111.4V106.8C206.3 106.6 205.7 106.2 205.2 105.7L204.8 105.3Z" fill="#86A2ED"/>
<path d="M211.6 105.3L211.1 105.8C210.7 106.2 210.4 106.4 209.9 106.6V111.4C209.9 112.4 210.7 113.2 211.7 113.2H215.8C216.8 113.2 217.6 112.4 217.6 111.4V101C217.6 100.5 217.4 100 217.1 99.7L211.6 105.3Z" fill="#86A2ED"/>
<path d="M221.9 95L221.2 95.7L220.7 96.2V111.4C220.7 112.4 221.5 113.2 222.5 113.2H226.6C227.6 113.2 228.4 112.4 228.4 111.4V88.6C228.4 88.5 228.4 88.5 228.4 88.4L221.9 95Z" fill="#86A2ED"/>
<path d="M104 89.9C104.2 90.7 104.6 91.6 105 92.3L103.8 93.8C103.5 94.4 103.5 95 103.9 95.5L105.9 97.6C106.3 98 107 98 107.4 97.7L108.8 96.5C109.6 96.9 110.3 97.3 111.2 97.5L111.4 99.5C111.5 100.2 112 100.6 112.6 100.6H115.5C116.2 100.6 116.6 100.2 116.7 99.5L116.9 97.6C117.8 97.4 118.7 96.9 119.4 96.5L120.8 97.6C121.2 98 122 97.9 122.3 97.5L124.3 95.4C124.7 95 124.7 94.3 124.4 93.7L123.3 92.3C123.7 91.5 124.2 90.6 124.4 89.7L126.1 89.6C126.8 89.5 127.2 89 127.2 88.4V85.4C127.2 84.7 126.8 84.2 126.1 84.2L124.4 84C124.2 83.1 123.8 82.2 123.4 81.5L124.4 80.2C124.7 79.6 124.7 79 124.3 78.5L122.3 76.4C121.9 76 121.2 76 120.8 76.3L119.5 77.3C118.7 76.9 117.8 76.4 116.9 76.2L116.7 74.5C116.6 73.8 116.1 73.4 115.5 73.4H112.6C111.9 73.4 111.5 73.8 111.4 74.5L111.2 76.2C110.2 76.4 109.3 76.9 108.6 77.4L107.3 76.3C106.9 75.9 106.1 76 105.8 76.4L103.8 78.5C103.4 78.9 103.4 79.6 103.7 80.2L104.8 81.6C104.4 82.4 104 83.3 103.8 84.1L102 84.3C101.3 84.4 100.9 84.9 100.9 85.5V88.5C100.9 89.2 101.3 89.7 102 89.7L104 89.9ZM114.3 82C116.9 81.9 119.3 84 119.4 86.7C119.5 89.3 117.4 91.7 114.7 91.8C111.9 91.9 109.7 89.8 109.6 87.1V87C109.6 84.2 111.6 82 114.3 82Z" fill="#CB333B"/>
<path d="M142.4 90.6L140.9 89.3C140.5 88.9 139.8 88.9 139.4 89.3L138.5 90.1C137.8 89.8 137.1 89.5 136.3 89.3L136.1 88.1C136 87.5 135.4 87.1 134.9 87.1L132.9 87.3C132.2 87.4 131.8 87.9 131.8 88.5V89.7C131 89.9 130.4 90.4 129.7 90.8L128.7 90.1C128.1 89.8 127.5 89.9 127.2 90.3L125.9 91.8C125.5 92.2 125.5 93 125.9 93.5L126.8 94.5C126.5 95.2 126.2 95.9 126.1 96.7L124.9 96.9C124.3 97 123.9 97.6 123.9 98.2L124.1 100.2C124.1 100.8 124.7 101.3 125.2 101.3H126.5C126.7 102 127.1 102.6 127.5 103.2L126.7 104.4C126.4 105 126.5 105.6 126.9 106.1L128.4 107.4C128.8 107.8 129.5 107.8 129.9 107.4L130.9 106.4C131.6 106.7 132.2 107 132.9 107.1L133.1 108.5C133.2 109.1 133.8 109.5 134.3 109.5L136.3 109.3C137 109.2 137.4 108.7 137.4 108.1V106.8C138.1 106.5 138.8 106.1 139.4 105.7L140.5 106.5C141.1 106.8 141.7 106.7 142 106.3L143.2 104.8C143.6 104.4 143.6 103.6 143.2 103.1L142.3 102.1C142.6 101.4 142.9 100.7 143 99.9L144.2 99.7C144.8 99.6 145.2 99 145.2 98.4L145.1 96.4C145.1 95.8 144.5 95.3 144 95.3H142.8C142.6 94.6 142.2 93.9 141.8 93.3L142.5 92.3C142.9 91.7 142.8 90.9 142.4 90.6ZM135 102.3C132.9 102.4 131 100.9 130.8 98.7C130.6 96.5 132.1 94.6 134.3 94.4C136.4 94.3 138.3 95.8 138.5 98C138.7 100.2 137.2 102 135 102.3Z" fill="#86A2ED"/>
<path d="M110.9 107.8C110.2 107.9 109.8 108.4 109.8 109V110.2C109.8 110.9 110.2 111.3 110.8 111.4L111.7 111.5C111.8 112.1 112 112.6 112.4 113L111.8 113.8C111.5 114.2 111.5 115 111.9 115.5L112.8 116.4C113.2 116.8 113.9 116.8 114.3 116.5L115 115.9C115.4 116.2 116 116.5 116.5 116.7L116.6 117.7C116.6 118.4 117.2 118.8 117.8 118.8H119C119.7 118.8 120.1 118.4 120.2 117.7L120.3 116.8C120.9 116.7 121.5 116.5 122.1 116.1L122.8 116.7C123.2 117.1 123.9 117.1 124.3 116.6L125.2 115.7C125.6 115.3 125.6 114.6 125.3 114L124.7 113.3C125 112.7 125.3 112.2 125.5 111.5L126.3 111.4C127 111.3 127.4 110.8 127.4 110.2V109C127.4 108.3 127 107.9 126.4 107.8L125.6 107.7C125.5 107.1 125.3 106.5 124.9 105.9L125.3 105.2C125.6 104.8 125.6 104 125.2 103.5L124.3 102.6C123.9 102.2 123.2 102.2 122.8 102.5L122.2 102.9C121.6 102.6 121.1 102.3 120.4 102.1L120.3 101.3C120.3 100.6 119.7 100.2 119.1 100.2H118C117.3 100.2 116.9 100.6 116.8 101.3L116.7 102.1C116 102.3 115.5 102.5 114.9 102.9L114.3 102.3C113.9 101.9 113.2 101.9 112.8 102.4L111.9 103.3C111.5 103.7 111.5 104.4 111.8 105L112.4 105.7C112.1 106.3 111.8 106.8 111.7 107.5L110.9 107.8ZM118.6 106.3C120.4 106.3 121.9 107.6 121.9 109.5C121.9 111.4 120.6 112.8 118.7 112.8C116.9 112.8 115.4 111.5 115.4 109.6V109.5C115.4 107.8 116.8 106.3 118.6 106.3Z" fill="#86A2ED"/>
<path d="M4 132.9H0V125.8H4V126.5H0.8V128.8H3.8V129.5H0.8V132.1H4V132.9Z" fill="black"/>
<path d="M11.1 132.9H10.2L6.29998 126.9C6.39998 127.6 6.39998 128.2 6.39998 128.8V132.9H5.59998V125.8H6.49998L10.4 131.8C10.4 131.7 10.4 131.4 10.4 130.9C10.4 130.4 10.4 130.1 10.4 129.9V125.8H11.2L11.1 132.9Z" fill="black"/>
<path d="M17.2 125.8H18.1L15.5 132.9H14.7L12.1 125.8H13L14.6 130.4C14.8 130.9 14.9 131.4 15 132C15.1 131.5 15.3 130.9 15.5 130.4L17.2 125.8Z" fill="black"/>
<path d="M19 132.9V125.8H19.8V132.9H19Z" fill="black"/>
<path d="M22.7 130V133H21.9V125.9H23.9C24.6 125.8 25.3 126 25.8 126.4C26.2 126.8 26.5 127.3 26.4 127.9C26.4 128.8 25.8 129.6 25 129.8L26.9 133H25.9L24.2 130H22.7ZM22.7 129.2H23.8C24.3 129.2 24.7 129.1 25.1 128.8C25.4 128.5 25.5 128.2 25.5 127.8C25.5 127.4 25.4 127 25.1 126.8C24.7 126.6 24.2 126.5 23.8 126.5H22.7V129.2Z" fill="black"/>
<path d="M34.2 129.3C34.3 130.3 33.9 131.2 33.3 132C32.7 132.7 31.8 133.1 30.9 133C30 133 29.1 132.7 28.5 132C27.9 131.2 27.6 130.3 27.6 129.3C27.5 128.3 27.8 127.4 28.5 126.6C29.1 125.9 30 125.6 30.9 125.6C31.8 125.6 32.7 125.9 33.3 126.6C34 127.4 34.3 128.4 34.2 129.3ZM28.5 129.3C28.4 130.1 28.7 130.9 29.1 131.5C30.1 132.5 31.7 132.5 32.7 131.5C33.1 130.9 33.4 130.1 33.3 129.3C33.4 128.5 33.1 127.8 32.7 127.1C32.3 126.6 31.6 126.3 30.9 126.4C30.2 126.4 29.6 126.6 29.1 127.2C28.7 127.8 28.5 128.6 28.5 129.3Z" fill="black"/>
<path d="M41.4001 132.9H40.4001L36.5 126.9C36.6 127.6 36.6 128.2 36.6 128.8V132.9H35.8V125.8H36.7001L40.6 131.8C40.6 131.7 40.6 131.4 40.6 130.9C40.6 130.4 40.6 130.1 40.6 129.9V125.8H41.4001V132.9Z" fill="black"/>
<path d="M46.5 132.9L44.1 126.6C44.1 127.1 44.2 127.7 44.2 128.4V132.9H43.4V125.8H44.6L46.9 131.7L49.2 125.8H50.4V132.9H49.6V128.3C49.6 127.8 49.6 127.2 49.7 126.6L47.3 132.9H46.5Z" fill="black"/>
<path d="M56.4 132.9H52.4V125.8H56.4V126.5H53.2V128.8H56.2V129.5H53.2V132.1H56.4V132.9Z" fill="black"/>
<path d="M63.5 132.9H62.5L58.6 126.9C58.7 127.6 58.7 128.2 58.7 128.8V132.9H58V125.8H58.9L62.8 131.8C62.8 131.7 62.8 131.4 62.8 130.9C62.8 130.4 62.8 130.1 62.8 129.9V125.8H63.6L63.5 132.9Z" fill="black"/>
<path d="M67.7 132.9H66.9V126.5H64.6V125.8H69.9V126.5H67.7V132.9Z" fill="black"/>
<path d="M343.2 132.9L340.8 126.6C340.8 127.1 340.9 127.7 340.9 128.4V132.9H340V125.8H341.2L343.5 131.7L345.8 125.8H347V132.9H346.2V128.3C346.2 127.8 346.2 127.2 346.3 126.6L343.9 132.9H343.2Z" fill="black"/>
<path d="M353.5 132.9L352.6 130.6H349.7L348.8 132.9H348L350.8 125.7H351.5L354.3 132.9H353.5ZM352.4 129.9L351.6 127.7C351.5 127.4 351.4 127.1 351.3 126.7C351.2 127 351.1 127.4 351 127.7L350.2 129.9H352.4Z" fill="black"/>
<path d="M356.2 130V133H355.4V125.9H357.4C358.1 125.8 358.8 126 359.3 126.4C359.7 126.8 360 127.3 359.9 127.9C359.9 128.8 359.3 129.6 358.5 129.8L360.4 133H359.4L357.7 130H356.2ZM356.2 129.2H357.3C357.8 129.2 358.2 129.1 358.6 128.8C358.9 128.5 359 128.2 359 127.8C359 127.4 358.9 127 358.6 126.8C358.2 126.6 357.7 126.5 357.3 126.5H356.2V129.2Z" fill="black"/>
<path d="M366.7 132.9H365.7L363.1 129.4L362.3 130.1V132.9H361.5V125.8H362.3V129.3L365.5 125.8H366.5L363.6 128.9L366.7 132.9Z" fill="black"/>
<path d="M371.7 132.9H367.7V125.8H371.7V126.5H368.6V128.8H371.6V129.5H368.6V132.1H371.7V132.9Z" fill="black"/>
<path d="M375.5 132.9H374.7V126.5H372.4V125.8H377.8V126.5H375.5V132.9Z" fill="black"/>
<path d="M383.3 127.9C383.3 128.5 383.1 129.2 382.6 129.6C382 130 381.2 130.2 380.5 130.2H379.7V133H378.9V125.9H380.8C382.4 125.8 383.3 126.5 383.3 127.9ZM379.6 129.4H380.4C381 129.4 381.5 129.3 382 129C382.3 128.7 382.5 128.3 382.5 127.9C382.5 127.5 382.4 127.1 382 126.9C381.6 126.6 381.1 126.5 380.5 126.6H379.6V129.4Z" fill="black"/>
<path d="M384.8 132.9V125.8H385.6V132.2H388.7V133L384.8 132.9Z" fill="black"/>
<path d="M113.3 132.9V125.8H114.1V132.2H117.2V133L113.3 132.9Z" fill="black"/>
<path d="M394.5 132.9L393.6 130.6H390.7L389.8 132.9H389L391.8 125.7H392.5L395.3 132.9H394.5ZM393.3 129.9L392.5 127.7C392.4 127.4 392.3 127.1 392.2 126.7C392.1 127 392 127.4 391.9 127.7L391.1 129.9H393.3Z" fill="black"/>
<path d="M399.4 126.4C398.7 126.4 398 126.7 397.5 127.2C397 127.8 396.8 128.6 396.8 129.3C396.8 130.1 397 130.9 397.5 131.5C398 132 398.7 132.3 399.4 132.3C400 132.3 400.5 132.2 401.1 132V132.7C400.5 132.9 399.9 133 399.3 133C398.4 133 397.5 132.7 396.9 132C396.3 131.2 396 130.3 396 129.3C396 128.6 396.1 128 396.4 127.4C396.7 126.9 397.1 126.4 397.6 126.1C398.2 125.8 398.8 125.6 399.4 125.7C400.1 125.7 400.8 125.8 401.4 126.1L401 126.8C400.5 126.5 400 126.4 399.4 126.4Z" fill="black"/>
<path d="M406.6 132.9H402.6V125.8H406.6V126.5H403.5V128.8H406.5V129.5H403.5V132.1H406.6V132.9Z" fill="black"/>
<path d="M437.6 125.8H439.6C440.3 125.7 441 125.9 441.7 126.2C442.1 126.5 442.4 127 442.3 127.5C442.3 127.9 442.2 128.2 441.9 128.5C441.6 128.8 441.3 129 440.9 129C442 129.2 442.5 129.8 442.5 130.7C442.5 131.3 442.3 131.8 441.9 132.2C441.4 132.6 440.7 132.8 440.1 132.7H437.6V125.8ZM438.4 128.8H439.8C440.2 128.8 440.7 128.7 441.1 128.5C441.4 128.3 441.5 127.9 441.5 127.6C441.5 127.3 441.4 126.9 441.1 126.7C440.7 126.5 440.2 126.4 439.7 126.4H438.5L438.4 128.8ZM438.4 129.5V132.2H439.9C440.4 132.2 440.8 132.1 441.2 131.9C441.5 131.7 441.7 131.3 441.6 130.9C441.6 130.5 441.5 130.1 441.1 129.9C440.7 129.7 440.2 129.6 439.7 129.6L438.4 129.5Z" fill="black"/>
<path d="M444.1 132.9V125.8H444.9V132.9H444.1Z" fill="black"/>
<path d="M446.9 132.9V125.8H447.7V132.2H450.8V133L446.9 132.9Z" fill="black"/>
<path d="M452.1 132.9V125.8H452.9V132.2H456V133L452.1 132.9Z" fill="black"/>
<path d="M457.3 132.9V125.8H458.1V132.9H457.3Z" fill="black"/>
<path d="M465.6 132.9H464.6L460.7 126.9C460.8 127.6 460.8 128.2 460.8 128.8V132.9H460V125.8H461L464.9 131.8C464.9 131.7 464.9 131.4 464.9 130.9C464.9 130.4 464.9 130.1 464.9 129.9V125.8H465.7L465.6 132.9Z" fill="black"/>
<path d="M470.7 129.2H473.1V132.7C472.7 132.8 472.3 132.9 472 133C471.5 133.1 471.1 133.1 470.6 133.1C469.7 133.1 468.7 132.8 468.1 132.1C467.5 131.4 467.1 130.4 467.2 129.4C467.2 128.7 467.3 128 467.7 127.4C468 126.9 468.4 126.4 469 126.1C469.6 125.8 470.3 125.6 471 125.7C471.7 125.7 472.5 125.8 473.1 126.1L472.8 126.8C472.2 126.5 471.6 126.4 470.9 126.4C470.2 126.4 469.4 126.7 468.9 127.2C468.4 127.8 468.1 128.6 468.2 129.3C468.1 130.1 468.4 130.9 468.9 131.5C469.5 132 470.2 132.3 471 132.3C471.5 132.3 472 132.2 472.5 132.1V129.9H470.9L470.7 129.2Z" fill="black"/>
<path d="M188.4 131C188.4 131.6 188.2 132.1 187.7 132.5C187.2 132.9 186.5 133.1 185.8 133C185.1 133 184.4 132.9 183.8 132.7V131.9C184.1 132 184.5 132.1 184.8 132.2C185.1 132.3 185.5 132.3 185.8 132.3C186.2 132.3 186.7 132.2 187 132C187.3 131.8 187.4 131.5 187.4 131.1C187.4 130.9 187.4 130.7 187.3 130.5C187.2 130.3 187 130.2 186.8 130.1C186.5 129.9 186.1 129.8 185.7 129.7C185.2 129.5 184.7 129.2 184.3 128.8C184 128.4 183.9 128 183.9 127.5C183.9 127 184.1 126.5 184.5 126.2C185 125.9 185.6 125.7 186.1 125.7C186.8 125.7 187.5 125.8 188.1 126.1L187.8 126.8C187.3 126.6 186.7 126.4 186.1 126.4C185.7 126.4 185.4 126.5 185.1 126.7C184.9 126.9 184.7 127.2 184.7 127.5C184.7 127.7 184.7 127.9 184.8 128.1C184.9 128.3 185.1 128.4 185.3 128.5C185.6 128.7 186 128.8 186.3 128.9C186.9 129.1 187.4 129.4 187.9 129.8C188.4 130.2 188.5 130.6 188.4 131Z" fill="black"/>
<path d="M192.1 132.9H191.3V126.5H189V125.8H194.4V126.5H192.2L192.1 132.9Z" fill="black"/>
<path d="M199.9 132.9L199 130.6H196.1L195.2 132.9H194.4L197.2 125.7H197.9L200.7 132.9H199.9ZM198.8 129.9L198 127.7C197.9 127.4 197.8 127.1 197.7 126.7C197.6 127 197.5 127.4 197.4 127.7L196.6 129.9H198.8Z" fill="black"/>
<path d="M204 132.9H203.2V126.5H200.9V125.8H206.3V126.5H204V132.9Z" fill="black"/>
<path d="M207.3 132.9V125.8H208.1V132.9H207.3Z" fill="black"/>
<path d="M214.1 131C214.1 131.6 213.9 132.1 213.4 132.5C212.9 132.9 212.2 133.1 211.5 133C210.8 133 210.1 132.9 209.5 132.7V131.9C209.8 132 210.2 132.1 210.5 132.2C210.8 132.3 211.2 132.3 211.5 132.3C211.9 132.3 212.4 132.2 212.7 132C213 131.8 213.1 131.5 213.1 131.1C213.1 130.9 213.1 130.7 213 130.5C212.9 130.3 212.7 130.2 212.5 130.1C212.2 129.9 211.8 129.8 211.4 129.7C210.9 129.5 210.4 129.2 210 128.8C209.7 128.4 209.6 128 209.6 127.5C209.6 127 209.8 126.5 210.2 126.2C210.7 125.9 211.3 125.7 211.8 125.7C212.5 125.7 213.2 125.8 213.8 126.1L213.5 126.8C213 126.6 212.4 126.4 211.8 126.4C211.4 126.4 211.1 126.5 210.8 126.7C210.6 126.9 210.4 127.2 210.4 127.5C210.4 127.7 210.4 127.9 210.5 128.1C210.6 128.3 210.8 128.4 211 128.5C211.3 128.7 211.7 128.8 212 128.9C212.6 129.1 213.1 129.4 213.6 129.8C214 130.2 214.2 130.6 214.1 131Z" fill="black"/>
<path d="M217.8 132.9H217V126.5H214.7V125.8H220V126.5H217.7L217.8 132.9Z" fill="black"/>
<path d="M221.1 132.9V125.8H221.9V132.9H221.1Z" fill="black"/>
<path d="M227 126.4C226.3 126.4 225.6 126.7 225.1 127.2C224.6 127.8 224.4 128.6 224.4 129.3C224.4 130.1 224.6 130.9 225.1 131.5C225.6 132 226.3 132.3 227 132.3C227.6 132.3 228.1 132.2 228.7 132V132.7C228.1 132.9 227.5 133 226.9 133C226 133 225.1 132.7 224.5 132C223.9 131.2 223.6 130.3 223.6 129.3C223.6 128.6 223.7 128 224 127.4C224.3 126.9 224.7 126.4 225.2 126.1C225.8 125.8 226.4 125.6 227 125.7C227.7 125.7 228.4 125.8 229 126.1L228.6 126.8C228.1 126.5 227.6 126.4 227 126.4Z" fill="black"/>
<path d="M234.2 131C234.2 131.6 234 132.1 233.5 132.5C233 132.9 232.3 133.1 231.6 133C230.9 133 230.2 132.9 229.6 132.7V131.9C229.9 132 230.3 132.1 230.6 132.2C230.9 132.3 231.3 132.3 231.6 132.3C232 132.3 232.5 132.2 232.8 132C233.1 131.8 233.2 131.5 233.2 131.1C233.2 130.9 233.2 130.7 233.1 130.5C233 130.3 232.8 130.2 232.6 130.1C232.3 129.9 231.9 129.8 231.5 129.7C231 129.5 230.5 129.2 230.1 128.8C229.8 128.4 229.7 128 229.7 127.5C229.7 127 229.9 126.5 230.3 126.2C230.8 125.9 231.4 125.7 231.9 125.7C232.6 125.7 233.3 125.8 233.9 126.1L233.6 126.8C233.1 126.6 232.5 126.4 231.9 126.4C231.5 126.4 231.2 126.5 230.9 126.7C230.7 126.9 230.5 127.2 230.5 127.5C230.5 127.7 230.5 127.9 230.6 128.1C230.7 128.3 230.9 128.4 231.1 128.5C231.4 128.7 231.8 128.8 232.1 128.9C232.7 129.1 233.2 129.4 233.7 129.8C234.1 130.2 234.3 130.6 234.2 131Z" fill="black"/>
<path d="M94 129.3C94.1 130.3 93.7 131.3 93 132C92.2 132.7 91.2 133 90.2 132.9H88.2V125.8H90.4C92.2 125.6 93.7 126.9 93.9 128.7C94 128.8 94 129.1 94 129.3ZM93.1 129.3C93.2 128.5 92.9 127.8 92.4 127.2C91.8 126.7 91.1 126.4 90.3 126.5H89.1V132.2H90.1C90.9 132.3 91.7 132 92.3 131.5C92.9 130.9 93.2 130.1 93.1 129.3Z" fill="black"/>
<path d="M99.6 132.9H95.6V125.8H99.6V126.5H96.4V128.8H99.4V129.5H96.4V132.1H99.6V132.9Z" fill="black"/>
<path d="M105.2 125.8H106.1L103.5 132.9H102.7L100.1 125.8H101L102.6 130.4C102.8 130.9 102.9 131.4 103 132C103.1 131.5 103.3 130.9 103.5 130.4L105.2 125.8Z" fill="black"/>
<path d="M111.1 132.9H107.1V125.8H111.1V126.5H108V128.8H111V129.5H108V132.1H111.2L111.1 132.9Z" fill="black"/>
<path d="M124.9 129.3C125 130.3 124.6 131.2 124 132C123.4 132.7 122.5 133.1 121.6 133C120.7 133 119.8 132.7 119.2 132C118.6 131.2 118.3 130.3 118.3 129.3C118.2 128.3 118.5 127.4 119.2 126.6C119.8 125.9 120.7 125.6 121.6 125.6C122.5 125.6 123.4 125.9 124 126.6C124.7 127.4 125 128.4 124.9 129.3ZM119.2 129.3C119.1 130.1 119.4 130.9 119.8 131.5C120.8 132.5 122.4 132.5 123.4 131.5C123.8 130.9 124.1 130.1 124 129.3C124.1 128.5 123.8 127.8 123.4 127.1C123 126.6 122.3 126.3 121.6 126.4C120.9 126.4 120.3 126.6 119.8 127.2C119.4 127.8 119.2 128.6 119.2 129.3Z" fill="black"/>
<path d="M131 127.9C131 128.5 130.8 129.2 130.3 129.6C129.7 130 128.9 130.2 128.2 130.2H127.4V133H126.6V125.9H128.5C130.1 125.8 131 126.5 131 127.9ZM127.3 129.4H128.1C128.7 129.4 129.2 129.3 129.7 129C130 128.7 130.2 128.3 130.2 127.9C130.2 127.5 130.1 127.1 129.7 126.9C129.3 126.6 128.8 126.5 128.3 126.6H127.4C127.3 126.5 127.3 129.4 127.3 129.4Z" fill="black"/>
<path d="M135.7 132.9L133.3 126.6C133.3 127.1 133.4 127.7 133.4 128.4V132.9H132.6V125.8H133.8L136.1 131.7L138.4 125.8H139.6V132.9H138.8V128.3C138.8 127.8 138.8 127.2 138.9 126.6L136.5 132.9H135.7Z" fill="black"/>
<path d="M145.5 132.9H141.5V125.8H145.5V126.5H142.4V128.8H145.4V129.5H142.4V132.1H145.5V132.9Z" fill="black"/>
<path d="M152.7 132.9H151.8L147.9 126.9C148 127.6 148 128.2 148 128.8V132.9H147.2V125.8H148L151.9 131.8C151.9 131.7 151.9 131.4 151.9 130.9C151.9 130.4 151.9 130.1 151.9 129.9V125.8H152.7V132.9Z" fill="black"/>
<path d="M156.9 132.9H156V126.5H153.7V125.8H159.1V126.5H156.8L156.9 132.9Z" fill="black"/>
<path d="M269.5 131C269.5 131.6 269.3 132.1 268.8 132.5C268.3 132.9 267.6 133.1 266.9 133C266.2 133 265.5 132.9 264.9 132.7V131.9C265.2 132 265.6 132.1 265.9 132.2C266.2 132.3 266.6 132.3 266.9 132.3C267.3 132.3 267.8 132.2 268.1 132C268.4 131.8 268.5 131.5 268.5 131.1C268.5 130.9 268.5 130.7 268.4 130.5C268.3 130.3 268.1 130.2 267.9 130.1C267.6 129.9 267.2 129.8 266.8 129.7C266.3 129.5 265.8 129.2 265.4 128.8C265.1 128.4 265 128 265 127.5C265 127 265.2 126.5 265.6 126.2C266.1 125.9 266.7 125.7 267.2 125.7C267.9 125.7 268.6 125.8 269.2 126.1L268.9 126.8C268.4 126.6 267.8 126.4 267.2 126.4C266.8 126.4 266.5 126.5 266.2 126.7C266 126.9 265.8 127.2 265.8 127.5C265.8 127.7 265.8 127.9 265.9 128.1C266 128.3 266.2 128.4 266.4 128.5C266.7 128.7 267.1 128.8 267.4 128.9C268 129.1 268.5 129.4 268.9 129.8C269.4 130.2 269.6 130.6 269.5 131Z" fill="black"/>
<path d="M274 126.4C273.3 126.4 272.6 126.7 272.1 127.2C271.6 127.8 271.4 128.6 271.4 129.3C271.4 130.1 271.6 130.9 272.1 131.5C272.6 132 273.3 132.3 274 132.3C274.6 132.3 275.1 132.2 275.7 132V132.7C275.1 132.9 274.5 133 273.9 133C273 133 272.1 132.7 271.5 132C270.9 131.2 270.6 130.3 270.6 129.3C270.6 128.6 270.7 128 271 127.4C271.3 126.9 271.7 126.4 272.2 126.1C272.8 125.8 273.4 125.6 274 125.7C274.7 125.7 275.4 125.8 276 126.1L275.6 126.8C275.1 126.5 274.6 126.4 274 126.4Z" fill="black"/>
<path d="M278.1 130V133H277.3V125.9H279.3C280 125.8 280.7 126 281.2 126.4C281.6 126.8 281.9 127.3 281.8 127.9C281.8 128.8 281.2 129.6 280.4 129.8L282.3 133H281.3L279.6 130H278.1ZM278.1 129.2H279.2C279.7 129.2 280.1 129.1 280.5 128.8C280.8 128.5 280.9 128.2 280.9 127.8C280.9 127.4 280.8 127 280.5 126.8C280.1 126.6 279.6 126.5 279.2 126.5H278.1V129.2Z" fill="black"/>
<path d="M283.5 132.9V125.8H284.3V132.9H283.5Z" fill="black"/>
<path d="M290.8 127.9C290.8 128.5 290.6 129.2 290.1 129.6C289.5 130 288.7 130.2 288 130.2H287.2V133H286.4V125.9H288.3C289.9 125.8 290.8 126.5 290.8 127.9ZM287.1 129.4H287.9C288.5 129.4 289 129.3 289.5 129C289.8 128.7 290 128.3 290 127.9C290 127.5 289.9 127.1 289.5 126.9C289.1 126.6 288.6 126.5 288 126.6H287.1V129.4Z" fill="black"/>
<path d="M294.5 132.9H293.7V126.5H291.4V125.8H296.8V126.5H294.5V132.9Z" fill="black"/>
<path d="M297.8 132.9V125.8H298.6V132.9H297.8Z" fill="black"/>
<path d="M306.2 132.9H305.2L301.3 126.9C301.4 127.6 301.4 128.2 301.4 128.8V132.9H300.6V125.8H301.5L305.4 131.8C305.4 131.7 305.4 131.4 305.4 130.9C305.4 130.4 305.4 130.1 305.4 129.9V125.8H306.2V132.9Z" fill="black"/>
<path d="M311.3 129.2H313.7V132.7C313.3 132.8 312.9 132.9 312.6 133C312.1 133.1 311.7 133.1 311.2 133.1C310.3 133.1 309.3 132.8 308.7 132.1C308.1 131.4 307.7 130.4 307.8 129.4C307.8 128.7 307.9 128 308.3 127.4C308.6 126.9 309 126.4 309.6 126.1C310.2 125.8 310.9 125.6 311.6 125.7C312.3 125.7 313.1 125.8 313.7 126.1L313.4 126.8C312.8 126.5 312.2 126.4 311.5 126.4C310.8 126.4 310 126.7 309.5 127.2C309 127.8 308.7 128.6 308.8 129.3C308.7 130.1 309 130.9 309.5 131.5C310.1 132 310.8 132.3 311.6 132.3C312.1 132.3 312.6 132.2 313.1 132.1V129.9H311.5L311.3 129.2Z" fill="black"/>
<path d="M517.8 130V133H517V125.9H519C519.7 125.8 520.4 126 520.9 126.4C521.3 126.8 521.6 127.3 521.5 127.9C521.5 128.8 520.9 129.6 520.1 129.8L522 133H521L519.3 130H517.8ZM517.8 129.2H518.9C519.4 129.2 519.8 129.1 520.2 128.8C520.5 128.5 520.6 128.2 520.6 127.8C520.6 127.4 520.5 127 520.2 126.8C519.8 126.6 519.3 126.5 518.9 126.5H517.8V129.2Z" fill="black"/>
<path d="M527.1 132.9H523.1V125.8H527.1V126.5H523.9V128.8H526.9V129.5H523.9V132.1H527.1V132.9Z" fill="black"/>
<path d="M531.8 129.2H534.2V132.7C533.8 132.8 533.4 132.9 533 133C532.5 133.1 532.1 133.1 531.6 133.1C530.7 133.1 529.7 132.8 529.1 132.1C528.5 131.4 528.1 130.4 528.2 129.4C528.2 128.7 528.3 128 528.7 127.4C529 126.9 529.4 126.4 530 126.1C530.6 125.8 531.3 125.6 532 125.7C532.7 125.7 533.5 125.8 534.1 126.1L533.8 126.8C533.2 126.5 532.6 126.4 531.9 126.4C531.2 126.4 530.4 126.7 529.9 127.2C529.4 127.8 529.1 128.6 529.2 129.3C529.1 130.1 529.4 130.9 529.9 131.5C530.5 132 531.2 132.3 532 132.3C532.5 132.3 533 132.2 533.5 132.1V129.9H531.9L531.8 129.2Z" fill="black"/>
<path d="M536 132.9V125.8H536.8V132.9H536Z" fill="black"/>
<path d="M544.9 129.3C545 130.3 544.6 131.2 544 132C543.4 132.7 542.5 133.1 541.6 133C540.7 133 539.8 132.7 539.2 132C538.6 131.2 538.3 130.3 538.3 129.3C538.2 128.3 538.5 127.4 539.2 126.6C539.8 125.9 540.7 125.6 541.6 125.6C542.5 125.6 543.4 125.9 544 126.6C544.7 127.4 545 128.4 544.9 129.3ZM539.2 129.3C539.1 130.1 539.4 130.9 539.8 131.5C540.8 132.5 542.4 132.5 543.4 131.5C543.8 130.9 544.1 130.1 544 129.3C544.1 128.5 543.8 127.8 543.4 127.1C543 126.6 542.3 126.3 541.6 126.4C540.9 126.4 540.3 126.6 539.8 127.2C539.4 127.8 539.2 128.6 539.2 129.3Z" fill="black"/>
<path d="M552.1 132.9H551.1L547.2 126.9C547.3 127.6 547.3 128.2 547.3 128.8V132.9H546.5V125.8H547.4L551.3 131.8C551.3 131.7 551.3 131.4 551.3 130.9C551.3 130.4 551.3 130.1 551.3 129.9V125.8H552.1V132.9Z" fill="black"/>
<path d="M558.1 131C558.1 131.6 557.9 132.1 557.4 132.5C556.9 132.9 556.2 133.1 555.6 133C554.9 133 554.2 132.9 553.6 132.7V131.9C553.9 132 554.3 132.1 554.6 132.2C554.9 132.3 555.3 132.3 555.6 132.3C556 132.3 556.5 132.2 556.8 132C557.1 131.8 557.2 131.5 557.2 131.1C557.2 130.9 557.2 130.7 557 130.5C556.9 130.3 556.7 130.2 556.5 130.1C556.2 129.9 555.8 129.8 555.4 129.7C554.9 129.5 554.4 129.2 554 128.8C553.7 128.4 553.6 128 553.6 127.5C553.6 127 553.8 126.5 554.2 126.2C554.7 125.9 555.3 125.7 555.8 125.7C556.5 125.7 557.2 125.8 557.8 126.1L557.5 126.8C557 126.6 556.4 126.4 555.8 126.4C555.4 126.4 555.1 126.5 554.8 126.7C554.6 126.9 554.4 127.2 554.4 127.5C554.4 127.7 554.4 127.9 554.5 128.1C554.6 128.3 554.8 128.4 555 128.5C555.3 128.7 555.7 128.8 556 128.9C556.6 129.1 557.1 129.4 557.5 129.8C558 130.2 558.1 130.6 558.1 131Z" fill="black"/>
<path d="M615.2 132.9L614.3 130.6H611.4L610.5 132.9H609.7L612.5 125.7H613.2L616 132.9H615.2ZM614.1 129.9L613.3 127.7C613.2 127.4 613.1 127.1 613 126.7C612.9 127 612.8 127.4 612.7 127.7L611.9 129.9H614.1Z" fill="black"/>
<path d="M622.8 129.3C622.9 130.3 622.5 131.3 621.8 132C621 132.7 620 133 619 132.9H617V125.8H619.2C621 125.6 622.5 126.9 622.7 128.7C622.7 128.8 622.7 129.1 622.8 129.3ZM621.9 129.3C622 128.5 621.7 127.8 621.2 127.2C620.6 126.7 619.9 126.4 619.1 126.5H617.9V132.2H618.9C619.7 132.3 620.5 132 621.1 131.5C621.7 130.9 621.9 130.1 621.9 129.3Z" fill="black"/>
<path d="M627.5 132.9L625.1 126.6C625.1 127.1 625.2 127.7 625.2 128.4V132.9H624.4V125.8H625.6L627.9 131.7L630.2 125.8H631.4V132.9H630.6V128.3C630.6 127.8 630.6 127.2 630.7 126.6L628.3 132.9H627.5Z" fill="black"/>
<path d="M633.4 132.9V125.8H634.2V132.9H633.4Z" fill="black"/>
<path d="M641.8 132.9H640.8L636.9 126.9C637 127.6 637 128.2 637 128.8V132.9H636.2V125.8H637.1L641 131.8C641 131.7 641 131.4 641 130.9C641 130.4 641 130.1 641 129.9V125.8H641.8V132.9Z" fill="black"/>
<path d="M534.9 96.7H528.1V100.8H534.9V96.7Z" fill="#CB333B"/>
<path d="M519 76C518.5 76 518 76.2963 518 76.5926V115.407C518 115.802 518.5 116 519 116C519.5 116 520 115.704 520 115.407V76.6914C520 76.1975 519.5 76 519 76Z" fill="#86A2ED"/>
<path d="M536 78H520V98H536V78Z" fill="#CB333B"/>
<path d="M534.849 82V98.5253H530.719C529.209 98.5253 528 99.7419 528 101.263C528 102.783 529.209 104 530.719 104H556L548.446 93.0507L556 82.1014C556 82 534.849 82 534.849 82Z" fill="#CB333B"/>
<path d="M528.1 100.8C528.1 102.3 529.3 103.5 530.8 103.5H534.9V98H530.8C529.3 98 528.1 99.3 528.1 100.8Z" fill="#CB333B"/>
<path d="M634.7 102C631.8 101.3 629.1 100 626.6 98.3L623.7 107.2L623.2 108.9L622.8 110.3L621.3 106.1C625 100.8 620.3 101 620.3 101C620.3 101 615.5 100.8 619.3 106.1L617.8 110.3L617.4 108.8L614 98.2C611.6 99.9 608.8 101.1 605.9 101.9C603.7 102.4 602.9 104.3 602.6 106.1C606.6 111.7 613.2 115.1 620.2 115.1C621.9 115.1 623.5 114.9 625.1 114.6C630.3 113.4 634.9 110.5 637.9 106.1C637.9 104.3 636.6 102.7 634.7 102Z" fill="#86A2ED"/>
<path d="M612.8 92.5C613.3 95.6 615.3 98.1 618.3 99.3C619.6 99.7 621.1 99.7 622.3 99.3C625.2 98.1 627.2 95.6 627.8 92.5C628.2 92.5 628.8 91.9 629.4 89.7C630.2 86.8 629.4 86.4 628.6 86.5C628.7 86.1 628.8 85.8 628.9 85.3C630.2 77.9 626.5 77.7 626.5 77.7C626 76.9 625.2 76.1 624.3 75.7C622.9 75 621.3 74.5 619.7 74.7C619.1 74.7 618.4 74.8 617.9 75C617.2 75.2 616.5 75.6 615.9 76.1C615.2 76.5 614.4 77.2 613.9 77.8C612.8 78.9 612.1 80.2 611.7 81.7C611.4 83 611.4 84.2 611.7 85.5C611.8 85.9 611.9 86.3 612 86.7C611.3 86.6 610.4 87 611.2 89.9C611.8 91.9 612.4 92.5 612.8 92.5Z" fill="#86A2ED"/>
<path d="M639 117.4C644.965 117.4 649.8 112.565 649.8 106.6C649.8 100.635 644.965 95.8 639 95.8C633.035 95.8 628.2 100.635 628.2 106.6C628.2 112.565 633.035 117.4 639 117.4Z" fill="white"/>
<path d="M639 115.8C644.081 115.8 648.2 111.681 648.2 106.6C648.2 101.519 644.081 97.4 639 97.4C633.919 97.4 629.8 101.519 629.8 106.6C629.8 111.681 633.919 115.8 639 115.8Z" fill="#CB333B"/>
<path d="M638.5 104.4L639.5 104.8L637.9 108C636.6 107.8 635.4 108.6 635.1 110C634.9 111.4 635.7 112.5 637.1 112.8C638.5 113 639.6 112.2 639.9 110.8C640 110 639.8 109.2 639.2 108.7L642.3 102.4C642.4 102.1 642.2 101.7 641.9 101.6C641.6 101.5 641.3 101.6 641.1 101.9L640.1 101.5C639.9 101.4 639.7 101.5 639.7 101.6L639.4 102.2C639.3 102.4 639.4 102.6 639.5 102.6L640.5 103L640.2 103.6L639.2 103.2C639 103.1 638.8 103.2 638.8 103.3L638.5 103.9C638.2 104.1 638.3 104.3 638.5 104.4C638.4 104.4 638.4 104.4 638.5 104.4ZM638.3 110.8C638.1 111.3 637.5 111.5 636.9 111.3C636.4 111.1 636.2 110.5 636.4 109.9C636.6 109.4 637.2 109.2 637.8 109.4C637.8 109.4 637.8 109.4 637.9 109.4C638.4 109.7 638.6 110.3 638.3 110.8Z" fill="white"/>
<path d="M576.6 107.3C577.263 107.3 577.8 106.763 577.8 106.1C577.8 105.437 577.263 104.9 576.6 104.9C575.937 104.9 575.4 105.437 575.4 106.1C575.4 106.763 575.937 107.3 576.6 107.3Z" fill="#5D6980"/>
<path d="M581.6 107.3C582.263 107.3 582.8 106.763 582.8 106.1C582.8 105.437 582.263 104.9 581.6 104.9C580.937 104.9 580.4 105.437 580.4 106.1C580.4 106.763 580.937 107.3 581.6 107.3Z" fill="#5D6980"/>
<path d="M586.6 107.3C587.263 107.3 587.8 106.763 587.8 106.1C587.8 105.437 587.263 104.9 586.6 104.9C585.937 104.9 585.4 105.437 585.4 106.1C585.4 106.763 585.937 107.3 586.6 107.3Z" fill="#5D6980"/>
<path d="M391.1 89.6H355.1V94.9H391.1V89.6Z" fill="#86A2ED"/>
<path d="M357.1 89.6L359.8 112.3H386.5L389.2 89.6H357.1ZM366.4 109H362.4V105H366.4V109ZM366.4 99.6H362.4V95.6H366.4V99.6ZM375.1 109H371.1V105H375.1V109ZM375.1 99.6H371.1V95.6H375.1V99.6ZM383.8 109H379.8V105H383.8V109ZM383.8 99.6H379.8V95.6H383.8V99.6Z" fill="#86A2ED"/>
<path d="M359.1 77.6H372.4C373.1 77.6 373.7 78.2 373.7 78.9V88.2H357.7V79C357.8 78.2 358.4 77.6 359.1 77.6Z" fill="#CB333B"/>
<path d="M376.4 80.3H387.1C387.8 80.3 388.4 80.9 388.4 81.6V88.3H375.1V81.6C375.1 80.9 375.7 80.3 376.4 80.3Z" fill="#CB333B"/>
<path d="M449.5 86.5C450 87.4 453.2 87.9 454.8 87.9C456.4 87.9 459.6 87.1 459.4 85.7C459.4 83.4 460 81.2 461 79C461.6 78 461.7 75.9 459.1 77C458.5 77.2 457.1 78.8 456.6 77C455.4 73.6 452.9 74.5 452.3 76.8C452 78.3 450.4 78.4 448.7 78.3C447 78.1 446.3 79.4 447 80.6C447.4 80.9 448.9 85.5 449.5 86.5Z" fill="#86A2ED"/>
<path d="M454.9 90.1C453 90.3 450.9 89.9 449.2 88.7C442.6 91.2 438.2 97.3 437.9 104.2C437.9 112.8 442.5 115.1 455.6 115.1C468.7 115.1 473.3 112.7 473.3 104.2C473.3 97.1 467 90 460.4 88.1C458.9 89.6 457 90.2 454.9 90.1ZM455.8 107.4V109.2C455.8 109.3 455.7 109.4 455.6 109.4H454.1C454 109.4 453.9 109.3 453.9 109.2V107.5C452.9 107.5 452 107.2 451.1 106.7C451.1 106.6 451.1 106.5 451.1 106.5L451.6 104.7C451.6 104.6 451.7 104.6 451.7 104.6C451.8 104.6 451.8 104.6 451.9 104.6C452.7 105.1 453.6 105.3 454.5 105.3C455.5 105.3 456.2 104.8 456.2 104.1C456.2 103.3 455.7 102.9 454.4 102.4C453 101.9 451.1 100.8 451.1 98.8C451.1 97.1 452.3 95.7 454 95.4V93.7C454 93.6 454.1 93.5 454.2 93.5H455.7C455.8 93.5 455.9 93.6 455.9 93.7V95C456.7 95.1 457.5 95.3 458.2 95.7C458.2 95.8 458.2 95.9 458.2 95.9L457.7 97.6C457.7 97.7 457.6 97.7 457.6 97.7C457.5 97.7 457.5 97.7 457.4 97.7C456.7 97.2 455.8 97 455 97C454.1 97 453.5 97.5 453.5 98.1C453.5 98.8 454.1 99.1 455.5 99.8C457.7 100.6 458.6 101.7 458.6 103.5C458.6 105.3 457.4 106.9 455.8 107.4Z" fill="#86A2ED"/>
<path d="M269.8 105.4H266.7C266.5 105.4 266.4 105.5 266.3 105.6L264.3 109.1H261.2V110H264.6C264.8 110 264.9 109.9 265 109.8L267 106.3H269.8C270.1 106.3 270.3 106.1 270.3 105.8C270.3 105.6 270.1 105.4 269.8 105.4Z" fill="#86A2ED"/>
<path d="M273.9 99.1H263.1L259.8 97C259.7 97 259.6 96.9 259.5 96.9H256V97.8H259.3L262.6 99.9C262.7 99.9 262.8 100 262.9 100H273.8C274.1 100 274.3 99.8 274.3 99.5C274.3 99.2 274.1 99.1 273.9 99.1Z" fill="#86A2ED"/>
<path d="M279.2 91H269.5L267.1 87.5C267 87.4 266.9 87.3 266.7 87.3H262.7V88.2H266.5L268.9 91.7C269 91.8 269.1 91.9 269.3 91.9H279.3C279.6 91.9 279.8 91.7 279.8 91.4C279.6 91.3 279.4 91 279.2 91Z" fill="#86A2ED"/>
<path d="M317 109.1H314.3L312.3 105.6C312.2 105.5 312.1 105.4 311.9 105.4H308.8C308.5 105.4 308.3 105.6 308.3 105.9C308.3 106.2 308.5 106.4 308.8 106.4H311.6L313.6 109.9C313.7 110 313.8 110.1 314 110.1H317V109.1Z" fill="#86A2ED"/>
<path d="M322.5 97H319C318.9 97 318.8 97 318.7 97.1L315.4 99.2H304.6C304.3 99.2 304.1 99.4 304.1 99.7C304.1 100 304.3 100.2 304.6 100.2H315.5C315.6 100.2 315.7 100.2 315.8 100.1L319.1 98H322.4V97H322.5Z" fill="#86A2ED"/>
<path d="M315.9 87.3H311.9C311.7 87.3 311.6 87.4 311.5 87.5L309.1 91H299.4C299.1 91 298.9 91.2 298.9 91.5C298.9 91.8 299.1 92 299.4 92H309.4C309.6 92 309.7 91.9 309.8 91.8L312.2 88.3H316L315.9 87.3Z" fill="#86A2ED"/>
<path d="M317.5 90.1C316.2 90.1 315.2 89.1 315.2 87.8C315.2 86.5 316.2 85.5 317.5 85.5C318.8 85.5 319.8 86.5 319.8 87.8C319.8 89.1 318.8 90.1 317.5 90.1ZM317.5 86.4C316.7 86.4 316.1 87 316.1 87.8C316.1 88.6 316.7 89.2 317.5 89.2C318.3 89.2 318.9 88.6 318.9 87.8C318.9 87 318.3 86.4 317.5 86.4Z" fill="#86A2ED"/>
<path d="M324.3 99.8C323 99.8 322 98.8 322 97.5C322 96.2 323 95.2 324.3 95.2C325.6 95.2 326.6 96.2 326.6 97.5C326.7 98.7 325.6 99.8 324.3 99.8ZM324.3 96C323.5 96 322.9 96.6 322.9 97.4C322.9 98.2 323.5 98.8 324.3 98.8C325.1 98.8 325.7 98.2 325.7 97.4C325.7 96.6 325.1 96 324.3 96Z" fill="#86A2ED"/>
<path d="M319 111.9C317.7 111.9 316.7 110.9 316.7 109.6C316.7 108.3 317.7 107.3 319 107.3C320.3 107.3 321.3 108.3 321.3 109.6C321.4 110.9 320.3 111.9 319 111.9ZM319 108.2C318.2 108.2 317.6 108.8 317.6 109.6C317.6 110.4 318.2 111 319 111C319.8 111 320.4 110.4 320.4 109.6C320.4 108.8 319.8 108.2 319 108.2Z" fill="#86A2ED"/>
<path d="M261.1 90.1C259.8 90.1 258.8 89.1 258.8 87.8C258.8 86.5 259.8 85.5 261.1 85.5C262.4 85.5 263.4 86.5 263.4 87.8C263.4 89.1 262.4 90.1 261.1 90.1ZM261.1 86.4C260.3 86.4 259.7 87 259.7 87.8C259.7 88.6 260.3 89.2 261.1 89.2C261.9 89.2 262.5 88.6 262.5 87.8C262.5 87 261.9 86.4 261.1 86.4Z" fill="#86A2ED"/>
<path d="M254.3 99.8C253 99.8 252 98.8 252 97.5C252 96.2 253 95.2 254.3 95.2C255.6 95.2 256.6 96.2 256.6 97.5C256.6 98.7 255.6 99.8 254.3 99.8ZM254.3 96C253.5 96 252.9 96.6 252.9 97.4C252.9 98.2 253.5 98.8 254.3 98.8C255.1 98.8 255.7 98.2 255.7 97.4C255.7 96.6 255 96 254.3 96Z" fill="#86A2ED"/>
<path d="M259.6 111.9C258.3 111.9 257.3 110.9 257.3 109.6C257.3 108.3 258.3 107.3 259.6 107.3C260.9 107.3 261.9 108.3 261.9 109.6C261.9 110.9 260.9 111.9 259.6 111.9ZM259.6 108.2C258.8 108.2 258.2 108.8 258.2 109.6C258.2 110.4 258.8 111 259.6 111C260.4 111 261 110.4 261 109.6C261 108.8 260.3 108.2 259.6 108.2Z" fill="#86A2ED"/>
<path d="M306.3 91.9C304.8 88.5 301.4 86 297.4 86C296.5 86 295.6 86.1 294.8 86.4C292.4 82.8 288.2 80.4 283.6 80.4C276.5 80.4 270.7 85.9 270.1 92.9C267.4 94.6 265.7 97.6 265.7 101C265.7 106.3 270 110.7 275.4 110.7H303C308.3 110.7 312.7 106.4 312.7 101C312.7 96.8 310 93.3 306.3 91.9Z" fill="#86A2ED"/>
<path d="M287.7 95.6C287 94.8 285.9 94.4 284.7 94.4C282.4 94.4 280.7 96 280.7 98.3C280.7 100.5 282.6 102.1 284.7 102.1C286 102.1 287.2 101.5 287.9 100.5L288.8 101.7C287.8 102.8 286.3 103.5 284.7 103.5C281.6 103.5 279.3 101.1 279.3 98.1C279.3 95.1 281.9 92.9 284.8 92.9C286.3 92.9 287.7 93.5 288.7 94.5L287.7 95.6Z" fill="white"/>
<path d="M294.4 103.6C292.9 103.6 291.2 102.8 290.2 101.5L291.3 100.5C291.8 101.1 292.8 102.1 294.4 102.1C295.9 102.1 297.4 101.5 297.4 100.3C297.4 98.8 295.9 98.8 294.4 98.8C292 98.8 290.7 97.9 290.7 96.2C290.7 94.6 292.3 93 294.4 93C295.9 93 297.3 93.4 298.5 94.6L297.6 95.7C296.5 94.8 295.7 94.5 294.4 94.5C293.3 94.5 292.3 95.3 292.3 96.2C292.3 96.8 292.7 97.4 294.5 97.4C298 97.4 299 98.5 299 100.4C298.9 102.3 297 103.6 294.4 103.6Z" fill="white"/>
<path d="M272.3 99.5V98.2L277.6 94.7V96.5L273.8 98.9L277.6 101.3V103.1L272.3 99.5Z" fill="white"/>
<path d="M301 103V101.2L304.8 98.8L301 96.4V94.6L306.3 98.1V99.4L301 103Z" fill="white"/>
<path d="M45.4 98.2H55.5C56.5 98.2 57.3 99 57.3 100V110.1C57.3 111.1 56.5 111.9 55.5 111.9H45.4C44.4 111.9 43.6 111.1 43.6 110.1V100C43.6 99 44.4 98.2 45.4 98.2Z" fill="#86A2ED"/>
<path d="M29.7 98.2H39.8C40.8 98.2 41.6 99 41.6 100V110.1C41.6 111.1 40.8 111.9 39.8 111.9H29.7C28.7 111.9 27.9 111.1 27.9 110.1V100C27.9 99 28.7 98.2 29.7 98.2Z" fill="#86A2ED"/>
<path d="M14 98.2H24.1C25.1 98.2 25.9 99 25.9 100V110.1C25.9 111.1 25.1 111.9 24.1 111.9H14C13 111.9 12.2 111.1 12.2 110.1V100C12.2 99 13 98.2 14 98.2Z" fill="#86A2ED"/>
<path d="M22.3 77.9H46.3C47.3 77.9 48.1 78.7 48.1 79.7V89.8C48.1 90.8 47.3 91.6 46.3 91.6H22.3C21.3 91.6 20.5 90.8 20.5 89.8V79.7C20.5 78.7 21.3 77.9 22.3 77.9Z" fill="#CB333B"/>
<path d="M50.5 94.5H50H35.2999V91.7H34.2999V94.5H19.6H19.1H18.7V98.2H19.6V95.4H34.2999V98.2H35.2999V95.4H50V98.2H50.9V94.5H50.5Z" fill="#86A2ED"/>
<path d="M322.3 32.4C322.3 30.9 321.1 29.8 319.7 29.8H306.8C301.9 29.8 298 25.8 298 21V17.5C298 12.6 302 8.7 306.8 8.7H319.7C321.2 8.7 322.4 7.5 322.3 6.1C322.3 4.6 321.1 3.4 319.7 3.5H306.8C299 3.5 292.7 9.8 292.7 17.6V21.1C292.7 25 294.3 28.5 296.8 31.1C299.3 33.7 302.9 35.2 306.8 35.2H319.7C321.1 35.1 322.3 33.9 322.3 32.4Z" fill="#CB333B"/>
<path d="M322.4 35.8V2.7C322.4 1.2 321.2 0 319.7 0C318.2 0 317 1.2 317 2.7V35.8C317 36.5 317.3 37.2 317.8 37.7C318.3 38.2 318.9 38.5 319.7 38.5C321.2 38.4 322.4 37.2 322.4 35.8Z" fill="#CB333B"/>
<path d="M295.3 21.9C296.8 21.9 298 20.7 297.9 19.3C297.9 17.8 296.7 16.6 295.2 16.6H292C285.6 16.6 280.3 21.9 280.2 28.3C280.2 29 280.5 29.7 281 30.2C281.5 30.7 282.1 31 282.8 31C284.3 31 285.5 29.8 285.5 28.4C285.5 24.8 288.4 21.9 292 21.9H295.3Z" fill="#CB333B"/>
<path d="M335.5 27.5C335.5 26 334.3 24.8 332.9 24.8L319.7 24.7C318.2 24.7 317 25.9 317 27.3C317 28 317.3 28.7 317.8 29.2C318.3 29.7 318.9 30 319.7 30L332.9 30.1C334.3 30.1 335.4 28.9 335.5 27.5Z" fill="#CB333B"/>
<path d="M335.5 10.9C335.5 9.39999 334.3 8.29999 332.8 8.29999L319.6 8.39999C318.1 8.39999 317 9.59999 317 11.1C317 11.8 317.3 12.5 317.8 13C318.3 13.5 319 13.8 319.7 13.8L332.9 13.7C334.3 13.6 335.5 12.4 335.5 10.9Z" fill="#CB333B"/>
<path d="M368.4 21V17.5C368.4 13.7 366.9 10.2 364.3 7.49999C361.6 4.79999 358.1 3.39999 354.3 3.39999H341.4C339.9 3.39999 338.7 4.59999 338.8 5.99999C338.8 7.49999 340 8.69999 341.5 8.69999H354.4C359.3 8.69999 363.2 12.7 363.2 17.5V21C363.2 25.9 359.2 29.8 354.4 29.8H341.5C340 29.8 338.9 31 338.9 32.4C338.9 33.1 339.2 33.8 339.7 34.3C340.2 34.8 340.8 35.1 341.6 35.1H354.5C362.1 35.1 368.4 28.7 368.4 21Z" fill="#86A2ED"/>
<path d="M344 35.8V2.7C344 1.2 342.8 4.67151e-06 341.4 0.100005C339.9 0.100005 338.7 1.3 338.8 2.7V35.8C338.8 36.5 339.1 37.2 339.6 37.7C340.1 38.2 340.7 38.5 341.5 38.5C342.8 38.4 344 37.2 344 35.8Z" fill="#86A2ED"/>
<path d="M380.8 10.1C380.8 8.59999 379.6 7.39999 378.2 7.39999C376.7 7.39999 375.5 8.59999 375.5 9.99999C375.5 13.6 372.6 16.5 369 16.5H365.8C364.3 16.5 363.1 17.7 363.1 19.2C363.1 19.9 363.4 20.6 363.9 21.1C364.4 21.6 365 21.9 365.8 21.9H369C375.4 21.9 380.7 16.6 380.8 10.1Z" fill="#86A2ED"/>
</svg>
