<?xml version="1.0" encoding="utf-8"?>
<!-- Generator: Adobe Illustrator 25.2.1, SVG Export Plug-In . SVG Version: 6.00 Build 0)  -->
<svg version="1.1" id="Layer_1" xmlns="http://www.w3.org/2000/svg" xmlns:xlink="http://www.w3.org/1999/xlink" x="0px" y="0px"
	 viewBox="0 0 50 50" style="enable-background:new 0 0 50 50;" xml:space="preserve">
<style type="text/css">
	.st0{fill:#86A2ED;}
</style>
<path class="st0" d="M50,39.8v1.3c0,1.9-0.7,3.8-1.9,5.3c-0.4,0.6-1.2,0.9-1.9,0.9h-7.1c1.1-1.9,1.7-4,1.7-6.2v-1.3
	c0-3.7-1.3-7.2-3.8-9.9c0.2-0.1,0.3-0.1,0.5-0.2c1.3-0.7,2.7-0.9,4.1-0.6c2.4,0.6,4.5,2,6,3.9C49.2,35,50,37.4,50,39.8z M31.6,2.6
	c-0.8,0-1.6,0.1-2.4,0.3c1.6,1.5,2.9,3.3,3.8,5.3c0.9,2,1.3,4.1,1.3,6.3c0,2.2-0.5,4.3-1.3,6.3c-0.9,2-2.2,3.8-3.8,5.3
	c0.8,0.2,1.6,0.3,2.4,0.3c3.1,0,6.2-1.2,8.4-3.5c2.2-2.2,3.5-5.2,3.5-8.4c0-3.1-1.2-6.2-3.5-8.4C37.7,3.9,34.7,2.6,31.6,2.6z
	 M18.4,2.6c-2.3,0-4.6,0.7-6.6,2C9.9,5.9,8.4,7.8,7.5,9.9c-0.9,2.2-1.1,4.5-0.7,6.8c0.5,2.3,1.6,4.4,3.2,6.1
	c1.7,1.7,3.8,2.8,6.1,3.2c2.3,0.5,4.7,0.2,6.8-0.7c2.2-0.9,4-2.4,5.3-4.4c1.3-1.9,2-4.2,2-6.6c0-3.1-1.3-6.1-3.5-8.4
	C24.6,3.9,21.6,2.6,18.4,2.6z M28.5,29.1c-0.5-0.1-0.9-0.2-1.4-0.2c-1,0-1.9,0.2-2.7,0.7c-1.8,1-3.9,1.5-5.9,1.5
	c-2.1,0-4.1-0.5-5.9-1.5c-0.9-0.5-1.8-0.7-2.8-0.7c-0.4,0-0.8,0-1.2,0.1C6.1,29.6,3.9,31,2.4,33c-1.5,2-2.4,4.4-2.4,6.9v1.3
	c0,1.9,0.7,3.8,1.9,5.3c0.4,0.6,1.2,0.9,1.9,0.9H33c0.8,0,1.5-0.3,1.9-0.9c1.2-1.5,1.9-3.4,1.9-5.3v-1.3c0-2.5-0.8-4.9-2.3-6.8
	C33,31.1,30.9,29.7,28.5,29.1z"/>
</svg>
