<?xml version="1.0" encoding="utf-8"?>
<!-- Generator: Adobe Illustrator 25.2.1, SVG Export Plug-In . SVG Version: 6.00 Build 0)  -->
<svg version="1.1" id="Layer_1" xmlns="http://www.w3.org/2000/svg" xmlns:xlink="http://www.w3.org/1999/xlink" x="0px" y="0px"
	 viewBox="0 0 50 50" style="enable-background:new 0 0 50 50;" xml:space="preserve">
<style type="text/css">
	.st0{fill:#86A2ED;}
</style>
<path class="st0" d="M37.7,19.4h-1.4v-5.6c0-6.2-5-11.3-11.3-11.3s-11.3,5-11.3,11.3v5.6h-1.4c-2.3,0-4.2,1.9-4.2,4.2v19.7
	c0,2.3,1.9,4.2,4.2,4.2h25.3c2.3,0,4.2-1.9,4.2-4.2V23.6C41.9,21.3,40,19.4,37.7,19.4z M17.5,13.8c0-4.1,3.4-7.5,7.5-7.5
	s7.5,3.4,7.5,7.5v5.6h-15V13.8z M26.9,33.9v4.3c0,1-0.8,1.9-1.9,1.9s-1.9-0.8-1.9-1.9v-4.3c-1.1-0.7-1.9-1.8-1.9-3.2
	c0-2.1,1.7-3.8,3.8-3.8s3.8,1.7,3.8,3.8C28.8,32,28,33.2,26.9,33.9z"/>
</svg>
